<svg aria-hidden="true" style="position: absolute; width: 0; height: 0; overflow: hidden;" version="1.1" xmlns="http://www.w3.org/2000/svg" xmlns:xlink="http://www.w3.org/1999/xlink">
<defs>
    <symbol id="icon-close" viewBox="0 0 8 8">
        <path d="M8 0.8L7.2 0L4 3.2L0.8 0L0 0.8L3.2 4L0 7.2L0.8 8L4 4.8L7.2 8L8 7.2L4.8 4L8 0.8Z"/>
    </symbol>
    <symbol id="icon-menu" viewBox="0 0 32 32">
        <path stroke="currentColor" stroke-linecap="round" stroke-linejoin="round" stroke-width="3" d="M2.667 16h26.667M2.667 8h26.667M2.667 24h26.667"/>
    </symbol>
    <symbol id="icon-check" viewBox="0 0 10 8">
        <path d="M8.46077 0.460938L4.03223 4.88948L1.54346 2.40071L0.482422 3.46174L4.03223 7.01155L9.5218 1.52198L8.46077 0.460938Z"/>
    </symbol>

    <symbol id="icon-send" viewBox="0 0 24 24">
        <path d="M2 21L23 12L2 3V10L17 12L2 14V21Z"/>
    </symbol>
    <symbol id="icon-person" viewBox="0 0 18 24">
        <path d="M9 11.25C12.1023 11.25 14.625 8.72727 14.625 5.625C14.625 2.52273 12.1023 0 9 0C5.89773 0 3.375 2.52273 3.375 5.625C3.375 8.72727 5.89773 11.25 9 11.25ZM9 14.0625C5.99659 14.0625 0 15.5682 0 18.5625V22.5H18V18.5625C18 15.5682 12.0034 14.0625 9 14.0625Z"/>
    </symbol>
    <symbol id="icon-phone" viewBox="0 0 18 24">
        <path d="M16.0379 16.2751C15.0205 16.2751 14.0337 16.1126 13.107 15.8073C12.817 15.7119 12.4939 15.787 12.27 16.0207L10.9768 17.618C8.61803 16.4839 6.50299 14.4429 5.31295 12.046L6.96971 10.7937C7.20239 10.5698 7.2796 10.2372 7.18431 9.94723C6.88725 9.0205 6.72477 8.03367 6.72477 7.01633C6.72477 6.45494 6.26983 6 5.70844 6H2.21326C1.65187 6 1.15176 6.47659 1.20173 7.03331C1.57919 15.4196 8.33777 22.1782 16.7241 22.5556C17.2808 22.5936 17.7574 22.0935 17.7574 21.5321V18.0369C17.7574 17.4755 17.3025 17.0206 16.7411 17.0206C16.5057 17.0206 16.271 17.0206 16.0379 16.2751Z"/>
    </symbol>
    <symbol id="icon-email" viewBox="0 0 18 24">
        <path d="M15.75 4.5H2.25C1.00684 4.5 0 5.50684 0 6.75V17.25C0 18.4932 1.00684 19.5 2.25 19.5H15.75C16.9932 19.5 18 18.4932 18 17.25V6.75C18 5.50684 16.9932 4.5 15.75 4.5ZM15.4617 6.75L9 10.7895L2.53828 6.75H15.4617ZM15.75 17.25H2.25V8.07773L9 12.2965L15.75 8.07773V17.25Z"/>
    </symbol>

    <symbol id="icon-instagram" viewBox="0 0 24 24">
        <path d="M12 2.163c3.204 0 3.584 0.012 4.85 0.070 3.269 0.149 4.793 1.674 4.941 4.941 0.058 1.267 0.070 1.646 0.070 4.85s-0.012 3.584-0.070 4.85c-0.149 3.268-1.673 4.792-4.941 4.941-1.266 0.058-1.646 0.070-4.85 0.070s-3.584-0.012-4.85-0.070c-3.268-0.149-4.792-1.673-4.941-4.941-0.058-1.266-0.070-1.646-0.070-4.85s0.012-3.584 0.070-4.85c0.149-3.269 1.674-4.793 4.941-4.941 1.266-0.058 1.646-0.070 4.85-0.070zM12 0c-3.259 0-3.667 0.014-4.947 0.072-4.358 0.198-6.78 2.618-6.979 6.979-0.059 1.28-0.073 1.689-0.073 4.948s0.014 3.668 0.072 4.948c0.2 4.358 2.618 6.78 6.979 6.979 1.28 0.058 1.689 0.072 4.948 0.072s3.668-0.014 4.948-0.072c4.36-0.2 6.78-2.618 6.979-6.979 0.058-1.28 0.072-1.689 0.072-4.948s-0.014-3.668-0.072-4.948c-0.2-4.358-2.618-6.78-6.979-6.979-1.28-0.058-1.689-0.072-4.947-0.072zM12 5.838c-3.403 0-6.162 2.759-6.162 6.162s2.759 6.163 6.162 6.163 6.162-2.759 6.162-6.163c0-3.403-2.759-6.162-6.162-6.162zM12 16c-2.209 0-4-1.791-4-4s1.791-4 4-4 4 1.791 4 4-1.791 4-4 4zM18.406 4.155c-0.796 0-1.441 0.645-1.441 1.44s0.645 1.44 1.441 1.44c0.795 0 1.439-0.645 1.439-1.44s-0.644-1.44-1.439-1.44z"/>
    </symbol>
    <symbol id="icon-linkedin" viewBox="0 0 24 24">
        <path d="M4.98 3.5c0 1.381-1.11 2.5-2.48 2.5s-2.48-1.119-2.48-2.5c0-1.38 1.11-2.5 2.48-2.5s2.48 1.12 2.48 2.5zM5 24h-5v-16h5v16zM19.48 8c-3.02 0-4.42 1.67-5.16 2.82h-0.08v-2.47h-4.83v16h5.02v-8.03c0-2.11 0.4-4.16 3.01-4.16 2.58 0 2.62 2.42 2.62 4.3v7.89h5.02v-8.83c0-4.73-2.53-6.92-5.6-6.92z"/>
    </symbol>
    <symbol id="icon-facebook" viewBox="0 0 24 24">
        <path d="M24 12.073c0-6.627-5.373-12-12-12s-12 5.373-12 12c0 5.99 4.388 10.954 10.125 11.854v-8.385h-3.047v-3.47h3.047v-2.641c0-3.007 1.792-4.669 4.533-4.669 1.312 0 2.686 0.235 2.686 0.235v2.953h-1.514c-1.491 0-1.956 0.925-1.956 1.874v2.25h3.328l-0.532 3.47h-2.796v8.385c5.737-0.9 10.125-5.864 10.125-11.854z"/>
    </symbol>
    <symbol id="icon-twitter" viewBox="0 0 24 24">
        <path d="M24 4.557c-0.883 0.392-1.832 0.656-2.828 0.775 1.017-0.609 1.798-1.574 2.165-2.724-0.951 0.564-2.005 0.974-3.127 1.195-0.897-0.957-2.178-1.555-3.594-1.555-3.179 0-5.515 2.966-4.797 6.045-4.091-0.205-7.719-2.165-10.148-5.144-1.29 2.213-0.669 5.108 1.523 6.574-0.806-0.026-1.566-0.247-2.229-0.616-0.054 2.281 1.581 4.415 3.949 4.89-0.693 0.188-1.452 0.232-2.224 0.084 0.626 1.956 2.444 3.379 4.6 3.419-2.070 1.623-4.678 2.348-7.29 2.040 2.179 1.397 4.768 2.212 7.548 2.212 9.142 0 14.307-7.721 13.995-14.646 0.962-0.695 1.797-1.562 2.457-2.549z"/>
    </symbol>

    <symbol id="icon-astronaut" viewBox="0 0 64 64">
        <path d="M59.349 26.903c-0.655-0.886-1.622-1.457-2.716-1.61-1.1-0.155-2.183 0.133-3.063 0.804l-2.862 2.193-4.337 3.24-3.104-1.236c5.534-2.484 9.403-8.018 9.403-14.446 0-8.738-7.139-15.849-15.912-15.849s-15.912 7.111-15.912 15.849c0 3.167 0.947 6.112 2.56 8.59l-6.319-0.053c-0.003 0-0.007 0-0.010 0-0.019 0-0.037 0.010-0.054 0.010-0.121 0.003-0.241 0.030-0.354 0.070-0.030 0.010-0.059 0.018-0.088 0.030-0.015 0.005-0.030 0.008-0.044 0.013l-7.39 3.649c-0.002 0-0.003 0-0.003 0.002l-4.327 2.081c-0.047 0.020-0.096 0.047-0.143 0.081-1.727 1.149-2.311 3.404-1.369 5.247 0.505 0.98 1.36 1.701 2.414 2.032 0.406 0.126 0.819 0.19 1.231 0.19 0.662 0 1.318-0.163 1.918-0.483l3.173-1.688 5.174-2.671 3.103-0.018-12.438 12.378c-0.002 0.002-0.003 0.003-0.005 0.003l-3.059 3.048c-0.722 0.72-1.121 1.674-1.121 2.692s0.398 1.974 1.121 2.694c0.741 0.738 1.718 1.11 2.696 1.11s1.953-0.37 2.697-1.11l3.003-2.991 3.978-2.97 2.060 2.050-4.027 4.010c-0.002 0.002-0.003 0.003-0.005 0.003l-3.059 3.048c-0.722 0.72-1.121 1.674-1.121 2.692s0.398 1.974 1.121 2.694c0.741 0.738 1.718 1.11 2.696 1.11s1.953-0.37 2.697-1.11l7.957-7.923c0.002-0.002 0.003-0.003 0.003-0.005l2.308-2.285-0.008-0.008c0.015-0.015 0.035-0.020 0.050-0.035l11.808-12.934 7.934 1.128c0.057 0.008 0.114 0.013 0.172 0.013 0.148 0 0.291-0.035 0.428-0.088 0.040-0.015 0.076-0.034 0.114-0.054 0.044-0.023 0.091-0.034 0.133-0.062l7.344-4.877c0.027-0.018 0.042-0.047 0.067-0.067 0.030-0.024 0.066-0.032 0.093-0.059l2.906-2.721c1.511-1.416 1.719-3.738 0.484-5.398zM7.727 35.155c-0.396 0.213-0.846 0.253-1.276 0.118-0.426-0.133-0.772-0.425-0.976-0.818-0.368-0.716-0.155-1.59 0.489-2.062l3.003-1.444 1.026 3l-2.267 1.205zM15.719 30.977l-3.538 1.829-1.003-2.934 4.632-2.285-0.091 3.391zM50.231 15.847c0 2.1-0.5 4.080-1.369 5.851l-9.558-4.341c-0.101-1.31-0.779-2.457-1.803-3.171l3.346-11.111c5.434 1.728 9.382 6.798 9.382 12.771zM23.287 15.847c0-7.394 6.044-13.411 13.473-13.411 0.577 0 1.144 0.049 1.704 0.121l-3.274 10.865c-0.044-0.003-0.086-0.013-0.13-0.013-2.359 0-4.28 1.913-4.28 4.266s1.921 4.266 4.28 4.266c1.587 0 2.959-0.876 3.698-2.16l8.828 4.01c-2.456 3.306-6.388 5.461-10.826 5.461-7.429 0-13.473-6.017-13.473-13.411zM36.903 17.674c0 1.009-0.826 1.829-1.843 1.829s-1.843-0.82-1.843-1.829c0-1.009 0.826-1.829 1.843-1.829s1.843 0.82 1.843 1.829zM8.492 52.016c-0.54 0.536-1.414 0.533-1.952 0.002-0.261-0.261-0.403-0.601-0.403-0.965s0.141-0.706 0.403-0.963l2.2-2.191 1.946 1.939-2.192 2.181zM15.836 60.548c-0.54 0.536-1.416 0.536-1.953 0.002-0.261-0.261-0.403-0.603-0.403-0.966s0.141-0.705 0.403-0.963l2.2-2.192 1.946 1.939-2.193 2.184zM23.796 52.619c-0.002 0.002-0.003 0.003-0.005 0.003l-4.034 4.021-1.946-1.939 4.030-4.011c0 0 0.002 0 0.003-0.002s0.002-0.003 0.003-0.003c0.093-0.093 0.148-0.202 0.204-0.31 0.015-0.032 0.045-0.059 0.061-0.091 0.039-0.094 0.044-0.197 0.059-0.295 0.008-0.056 0.032-0.108 0.032-0.165 0-0.082-0.030-0.16-0.045-0.241-0.015-0.074-0.013-0.148-0.042-0.219-0.045-0.114-0.126-0.216-0.209-0.315-0.024-0.027-0.032-0.059-0.057-0.086 0 0-0.002-0.002-0.002-0.002s-0.002-0.003-0.002-0.003l-3.673-3.659c-0.040-0.040-0.089-0.054-0.133-0.088-0.064-0.051-0.126-0.096-0.199-0.131-0.071-0.034-0.14-0.054-0.214-0.074-0.077-0.022-0.155-0.039-0.236-0.045-0.074-0.005-0.145 0.002-0.219 0.012-0.082 0.010-0.158 0.020-0.237 0.045-0.076 0.024-0.145 0.062-0.215 0.103-0.045 0.025-0.096 0.034-0.14 0.066l-4.053 3.027-2.060-2.050 5.483-5.454 9.967 9.803-2.119 2.101zM39.382 36.581c-0.035-0.003-0.069 0.008-0.104 0.007-0.088-0.003-0.173 0.002-0.264 0.017-0.069 0.012-0.136 0.025-0.202 0.049-0.077 0.025-0.148 0.064-0.221 0.108-0.069 0.042-0.13 0.086-0.19 0.138-0.030 0.025-0.064 0.039-0.093 0.067l-10.738 11.761-9.891-9.731 6.475-6.442c0.476-0.477 0.48-1.249 0.003-1.726-0.241-0.241-0.555-0.358-0.871-0.358v-0.002l-5.072 0.030 0.064-3.673 7.094 0.061c2.892 2.958 6.924 4.802 11.385 4.802 1 0 1.976-0.103 2.923-0.279 0.093 0.074 0.182 0.148 0.296 0.194l5.508 2.193 0.348 1.733 0.407 2.024-6.864-0.976zM48.618 36.988l-0.715-3.56 3.307-2.467 2.164 2.871-4.756 3.156zM57.199 30.518l-1.916 1.794-2.128-2.827 1.901-1.457c0.354-0.271 0.803-0.384 1.239-0.327 0.443 0.062 0.831 0.293 1.097 0.651 0.493 0.666 0.411 1.599-0.197 2.164z"/>
    </symbol>
    <symbol id="icon-diagram" viewBox="0 0 32 32">
        <path d="M1.599 28.043h25.587c0.883 0 1.599-0.716 1.599-1.599v-2.132c0-0.883-0.716-1.599-1.599-1.599h-0.533v-13.293l3.028-2.868c0.703 0.346 1.553 0.136 2.013-0.499s0.396-1.508-0.152-2.068-1.42-0.644-2.065-0.198c-0.644 0.446-0.873 1.292-0.542 2.002l-2.281 2.163v-1.23c0-0.883-0.716-1.599-1.599-1.599h-21.322c-0.883 0-1.599 0.716-1.599 1.599v15.992h-0.533c-0.883 0-1.599 0.716-1.599 1.599v2.132c0 0.883 0.716 1.599 1.599 1.599zM30.384 4.588c0.294 0 0.533 0.239 0.533 0.533s-0.239 0.533-0.533 0.533c-0.294 0-0.533-0.239-0.533-0.533s0.239-0.533 0.533-0.533zM3.198 6.721c0-0.294 0.239-0.533 0.533-0.533h21.322c0.294 0 0.533 0.239 0.533 0.533v2.239l-1.066 1.013v-2.186c0-0.294-0.239-0.533-0.533-0.533h-19.19c-0.294 0-0.533 0.239-0.533 0.533v13.326c0 0.294 0.239 0.533 0.533 0.533h19.19c0.294 0 0.533-0.239 0.533-0.533v-9.674l1.066-1.010v12.284h-22.388v-15.992zM7.996 13.65c-0.721-0.002-1.354 0.478-1.546 1.174s0.105 1.433 0.725 1.801c0.62 0.368 1.41 0.276 1.928-0.226l1.853 0.93c0.215 0.108 0.476 0.057 0.636-0.123l3.939-4.431 3.872 2.901c0.208 0.156 0.498 0.139 0.686-0.039l3.365-3.188v8.131h-18.124v-12.26h18.124v2.66l-3.771 3.572-3.904-2.927c-0.222-0.166-0.534-0.135-0.718 0.072l-3.993 4.493-1.493-0.746c0.011-0.064 0.018-0.129 0.020-0.193 0-0.883-0.716-1.599-1.599-1.599zM8.529 15.249c0 0.294-0.239 0.533-0.533 0.533s-0.533-0.239-0.533-0.533c0-0.294 0.239-0.533 0.533-0.533s0.533 0.239 0.533 0.533zM11.727 23.778h5.331v0.533c0 0.294-0.239 0.533-0.533 0.533h-4.264c-0.294 0-0.533-0.239-0.533-0.533v-0.533zM1.066 24.311c0-0.294 0.239-0.533 0.533-0.533h9.062v0.533c0 0.883 0.716 1.599 1.599 1.599h4.264c0.883 0 1.599-0.716 1.599-1.599v-0.533h9.062c0.294 0 0.533 0.239 0.533 0.533v2.132c0 0.294-0.239 0.533-0.533 0.533h-25.587c-0.294 0-0.533-0.239-0.533-0.533v-2.132z"/>
    </symbol>
    <symbol id="icon-clock" viewBox="0 0 31 32">
        <path d="M30.609 15.301c-0.002-8.452-6.855-15.303-15.308-15.301s-15.303 6.855-15.301 15.308c0.001 6.658 4.307 12.551 10.649 14.576 0.061 0.019 0.124 0.029 0.187 0.029 0.121-0 0.239-0.032 0.342-0.094 0.135-0.080 0.236-0.207 0.283-0.356l3.865-12.25c1.057-0.005 1.909-0.866 1.903-1.923s-0.866-1.909-1.923-1.903c-0.284 0.001-0.565 0.067-0.82 0.191l-5.106-5.107c-0.253-0.245-0.657-0.238-0.902 0.016-0.239 0.247-0.239 0.639 0 0.886l5.103 5.109c-0.392 0.799-0.168 1.764 0.536 2.309l-3.683 11.673c-7.278-2.681-11.004-10.754-8.323-18.032s10.754-11.004 18.032-8.323c7.278 2.681 11.004 10.754 8.323 18.032-1.31 3.556-4.001 6.431-7.462 7.973l-0.398-1.874c-0.073-0.345-0.411-0.565-0.756-0.492-0.109 0.023-0.209 0.074-0.293 0.148l-3.837 3.426c-0.263 0.234-0.287 0.637-0.052 0.9 0.076 0.085 0.174 0.149 0.283 0.184l4.899 1.564c0.335 0.108 0.694-0.077 0.802-0.412 0.034-0.106 0.040-0.219 0.017-0.328l-0.391-1.839c5.664-2.388 9.342-7.942 9.329-14.089zM15.305 14.664c0.352 0 0.638 0.286 0.638 0.638s-0.286 0.638-0.638 0.638c-0.352 0-0.638-0.285-0.638-0.638s0.285-0.638 0.638-0.638zM17.405 29.528l2.184-1.948 0.603 2.84-2.787-0.892z"/>
    </symbol>
    <symbol id="icon-antenna" viewBox="0 0 30 32">
        <path d="M29.702 22.098l-8.443-8.505 0.937-4.615c0.242 0.094 0.499 0.144 0.758 0.146h0.006c1.192 0.014 2.17-0.941 2.184-2.133s-0.941-2.17-2.133-2.184c-1.192-0.014-2.17 0.941-2.184 2.133-0.003 0.255 0.039 0.509 0.125 0.749l-4.96 0.605-8.091-8.133c-0.099-0.101-0.235-0.159-0.377-0.16-0.14 0.001-0.274 0.056-0.373 0.155l-1.513 1.504c-0.208 0.208-0.208 0.546 0 0.754l0.814 0.826c-3.153 5.798-2.129 12.978 2.519 17.663 0.043 0.041 0.092 0.074 0.146 0.098-0.034 0.18-0.051 0.364-0.052 0.547v6.187h-6.4c-1.472 0.002-2.665 1.195-2.667 2.667v1.067c0 0.295 0.239 0.533 0.533 0.533h24.533c0.295 0 0.533-0.239 0.533-0.533v-1.067c-0.002-1.472-1.195-2.665-2.667-2.667h-6.4v-2.742c1.003 0.21 2.024 0.317 3.049 0.32 2.458-0.003 4.877-0.615 7.040-1.783l0.818 0.823c0.099 0.101 0.235 0.159 0.377 0.16 0.14-0.001 0.274-0.056 0.373-0.155l1.513-1.504c0.208-0.208 0.208-0.546 0-0.754zM22.209 6.233c0.418-0.415 1.093-0.414 1.509 0.004s0.414 1.093-0.004 1.508c-0.2 0.199-0.47 0.31-0.752 0.31h-0.003c-0.589-0.003-1.064-0.483-1.061-1.072 0.002-0.282 0.115-0.552 0.314-0.751h-0.002zM20.954 9.738l-0.598 2.946-1.175-1.182 1.774-1.763zM20.348 8.836l-1.92 1.909-1.485-1.493 3.405-0.415zM22.933 28.8c0.884 0 1.6 0.716 1.6 1.6v0.533h-23.467v-0.533c0-0.884 0.716-1.6 1.6-1.6h20.267zM15.467 26.667v1.067h-5.333v-1.067h5.333zM10.133 25.6v-4.053c0-1.294 1.196-2.347 2.667-2.347s2.667 1.053 2.667 2.347v4.053h-5.333zM16.533 23.904v-2.357c0-1.882-1.675-3.413-3.733-3.413-1.331-0.020-2.576 0.657-3.281 1.786-4.058-4.274-4.971-10.645-2.279-15.887l18.602 18.708c-2.872 1.461-6.165 1.873-9.309 1.163zM27.822 23.22l-21.057-21.181 0.755-0.752 7.935 7.98c0.004 0 0.006 0.007 0.010 0.010l13.115 13.191-0.757 0.752z"/>
    </symbol>
</defs>
</svg>
